<svg xmlns="http://www.w3.org/2000/svg" version="1.1" xmlns:xlink="http://www.w3.org/1999/xlink" xmlns:svgjs="http://svgjs.dev/svgjs" width="1000" height="1000" viewBox="0 0 1000 1000"><rect width="1000" height="1000" fill="#ffffff"></rect><g transform="matrix(0.7,0,0,0.7,149.5757615511468,313.7287707336294)"><svg viewBox="0 0 396 211" data-background-color="#ffffff" preserveAspectRatio="xMidYMid meet" height="532" width="1000" xmlns="http://www.w3.org/2000/svg" xmlns:xlink="http://www.w3.org/1999/xlink"><defs></defs><g id="tight-bounds" transform="matrix(1,0,0,1,0.23999775106551624,0.04035815038722035)"><svg viewBox="0 0 395.52 210.91928334950904" height="210.91928334950904" width="395.52"><g><svg viewBox="0 0 395.52 210.91928334950904" height="210.91928334950904" width="395.52"><g transform="matrix(1,0,0,1,0,153.47641594943886)"><svg viewBox="0 0 395.52 57.44286740007019" height="57.44286740007019" width="395.52"><g><svg viewBox="0 0 395.52 57.44286740007019" height="57.44286740007019" width="395.52"><g><svg viewBox="0 0 395.52 33.2516814159292" height="33.2516814159292" width="395.52"><g transform="matrix(1,0,0,1,0,0)"><svg width="395.52" viewBox="3 -35.5 429.3699951171875 36.099998474121094" height="33.2516814159292" data-palette-color="#332885"><path d="M17 0L3 0 3-3.5 7.9-3.5 7.9-31.4 3-31.4 3-34.9 17-34.9 17-31.4 12.1-31.4 12.1-3.5 17-3.5 17 0ZM45.85 0L33.1-21.3 28.9-29.05 28.75-29.05 28.75 0 24.65 0 24.65-34.9 29.5-34.9 42.25-13.6 46.45-5.85 46.6-5.85 46.6-34.9 50.7-34.9 50.7 0 45.85 0ZM82.84-31.2L71.75-31.2 71.75 0 67.55 0 67.55-31.2 56.45-31.2 56.45-34.9 82.84-34.9 82.84-31.2ZM109.89 0L88.59 0 88.59-34.9 109.89-34.9 109.89-31.2 92.79-31.2 92.79-19.5 108.89-19.5 108.89-15.8 92.79-15.8 92.79-3.7 109.89-3.7 109.89 0ZM121.94-15L121.94 0 117.74 0 117.74-34.9 131.64-34.9Q136.24-34.9 138.81-32.35 141.39-29.8 141.39-25L141.39-25Q141.39-21.15 139.62-18.68 137.84-16.2 134.39-15.4L134.39-15.4 142.39 0 137.64 0 130.09-15 121.94-15ZM121.94-18.6L131.64-18.6Q134.14-18.6 135.52-19.9 136.89-21.2 136.89-23.6L136.89-23.6 136.89-26.2Q136.89-28.6 135.52-29.9 134.14-31.2 131.64-31.2L131.64-31.2 121.94-31.2 121.94-18.6ZM170.94 0L158.19-21.3 153.99-29.05 153.84-29.05 153.84 0 149.74 0 149.74-34.9 154.59-34.9 167.34-13.6 171.54-5.85 171.69-5.85 171.69-34.9 175.79-34.9 175.79 0 170.94 0ZM194.88 0.6L194.88 0.6Q190.63 0.6 187.63-1.03 184.63-2.65 182.53-5.5L182.53-5.5 185.63-8.1Q187.49-5.65 189.74-4.38 191.99-3.1 195.03-3.1L195.03-3.1Q198.78-3.1 200.76-4.9 202.74-6.7 202.74-9.7L202.74-9.7Q202.74-12.2 201.24-13.55 199.74-14.9 196.28-15.7L196.28-15.7 193.44-16.35Q188.63-17.45 186.11-19.68 183.59-21.9 183.59-25.95L183.59-25.95Q183.59-28.25 184.44-30.05 185.28-31.85 186.81-33.05 188.34-34.25 190.46-34.88 192.59-35.5 195.13-35.5L195.13-35.5Q199.09-35.5 201.91-34.05 204.74-32.6 206.69-29.8L206.69-29.8 203.53-27.5Q202.09-29.5 200.03-30.65 197.99-31.8 194.94-31.8L194.94-31.8Q191.59-31.8 189.66-30.38 187.74-28.95 187.74-26.1L187.74-26.1Q187.74-23.6 189.36-22.33 190.99-21.05 194.28-20.3L194.28-20.3 197.13-19.65Q202.28-18.5 204.59-16.15 206.88-13.8 206.88-9.9L206.88-9.9Q206.88-7.5 206.06-5.55 205.24-3.6 203.69-2.25 202.13-0.9 199.91-0.15 197.69 0.6 194.88 0.6ZM244.98 0L225.93 0 225.93-34.9 230.13-34.9 230.13-3.7 244.98-3.7 244.98 0ZM262.53 0.6L262.53 0.6Q259.13 0.6 256.4-0.58 253.68-1.75 251.75-4.03 249.83-6.3 248.78-9.68 247.73-13.05 247.73-17.45L247.73-17.45Q247.73-21.85 248.78-25.2 249.83-28.55 251.75-30.85 253.68-33.15 256.4-34.33 259.13-35.5 262.53-35.5L262.53-35.5Q265.88-35.5 268.63-34.33 271.38-33.15 273.3-30.85 275.23-28.55 276.28-25.2 277.33-21.85 277.33-17.45L277.33-17.45Q277.33-13.05 276.28-9.68 275.23-6.3 273.3-4.03 271.38-1.75 268.63-0.58 265.88 0.6 262.53 0.6ZM262.53-3.15L262.53-3.15Q264.78-3.15 266.68-3.95 268.58-4.75 269.95-6.25 271.33-7.75 272.08-9.85 272.83-11.95 272.83-14.55L272.83-14.55 272.83-20.35Q272.83-22.95 272.08-25.05 271.33-27.15 269.95-28.65 268.58-30.15 266.68-30.95 264.78-31.75 262.53-31.75L262.53-31.75Q260.28-31.75 258.38-30.95 256.48-30.15 255.1-28.65 253.73-27.15 252.98-25.05 252.23-22.95 252.23-20.35L252.23-20.35 252.23-14.55Q252.23-11.95 252.98-9.85 253.73-7.75 255.1-6.25 256.48-4.75 258.38-3.95 260.28-3.15 262.53-3.15ZM297.18 0.6L297.18 0.6Q290.53 0.6 286.83-3.93 283.13-8.45 283.13-17.25L283.13-17.25Q283.13-26.05 286.83-30.78 290.53-35.5 297.18-35.5L297.18-35.5Q301.58-35.5 304.55-33.5 307.53-31.5 309.18-27.85L309.18-27.85 305.78-25.8Q304.73-28.5 302.58-30.13 300.43-31.75 297.18-31.75L297.18-31.75Q294.93-31.75 293.15-30.9 291.38-30.05 290.15-28.48 288.93-26.9 288.28-24.73 287.63-22.55 287.63-19.85L287.63-19.85 287.63-14.65Q287.63-9.25 290.13-6.2 292.63-3.15 297.18-3.15L297.18-3.15Q300.53-3.15 302.78-4.88 305.03-6.6 306.08-9.45L306.08-9.45 309.43-7.35Q307.78-3.65 304.68-1.53 301.58 0.6 297.18 0.6ZM342.17 0L337.77 0 334.27-10.3 320.17-10.3 316.67 0 312.42 0 324.62-34.9 329.97-34.9 342.17 0ZM333.22-14L327.32-31 327.07-31 321.17-14 333.22-14ZM367.57-31.2L356.47-31.2 356.47 0 352.27 0 352.27-31.2 341.17-31.2 341.17-34.9 367.57-34.9 367.57-31.2ZM385.37 0.6L385.37 0.6Q381.97 0.6 379.24-0.58 376.52-1.75 374.59-4.03 372.67-6.3 371.62-9.68 370.57-13.05 370.57-17.45L370.57-17.45Q370.57-21.85 371.62-25.2 372.67-28.55 374.59-30.85 376.52-33.15 379.24-34.33 381.97-35.5 385.37-35.5L385.37-35.5Q388.72-35.5 391.47-34.33 394.22-33.15 396.14-30.85 398.07-28.55 399.12-25.2 400.17-21.85 400.17-17.45L400.17-17.45Q400.17-13.05 399.12-9.68 398.07-6.3 396.14-4.03 394.22-1.75 391.47-0.58 388.72 0.6 385.37 0.6ZM385.37-3.15L385.37-3.15Q387.62-3.15 389.52-3.95 391.42-4.75 392.79-6.25 394.17-7.75 394.92-9.85 395.67-11.95 395.67-14.55L395.67-14.55 395.67-20.35Q395.67-22.95 394.92-25.05 394.17-27.15 392.79-28.65 391.42-30.15 389.52-30.95 387.62-31.75 385.37-31.75L385.37-31.75Q383.12-31.75 381.22-30.95 379.32-30.15 377.94-28.65 376.57-27.15 375.82-25.05 375.07-22.95 375.07-20.35L375.07-20.35 375.07-14.55Q375.07-11.95 375.82-9.85 376.57-7.75 377.94-6.25 379.32-4.75 381.22-3.95 383.12-3.15 385.37-3.15ZM411.92-15L411.92 0 407.72 0 407.72-34.9 421.62-34.9Q426.22-34.9 428.79-32.35 431.37-29.8 431.37-25L431.37-25Q431.37-21.15 429.59-18.68 427.82-16.2 424.37-15.4L424.37-15.4 432.37 0 427.62 0 420.07-15 411.92-15ZM411.92-18.6L421.62-18.6Q424.12-18.6 425.49-19.9 426.87-21.2 426.87-23.6L426.87-23.6 426.87-26.2Q426.87-28.6 425.49-29.9 424.12-31.2 421.62-31.2L421.62-31.2 411.92-31.2 411.92-18.6Z" opacity="1" transform="matrix(1,0,0,1,0,0)" fill="#000000" class="undefined-text-0" data-fill-palette-color="primary" id="text-0"></path></svg></g></svg></g><g transform="matrix(1,0,0,1,75.54432,41.101605357876096)"><svg viewBox="0 0 244.43135999999998 16.341262042194092" height="16.341262042194092" width="244.43135999999998"><g transform="matrix(1,0,0,1,0,0)"><svg width="244.43135999999998" viewBox="3.950000047683716 -34.849998474121094 533.2000122070312 35.64999771118164" height="16.341262042194092" data-palette-color="#332885"><path d="M23.05 0L3.95 0 3.95-34.1 7.7-34.1 7.7-3.1 23.05-3.1 23.05 0ZM47 0L27.75 0 27.75-34.1 46.85-34.1 46.85-30.95 31.5-30.95 31.5-19.05 43.5-19.05 43.5-16 31.5-16 31.5-3.1 47-3.1 47 0ZM64.15 0L60.45 0 60.45-31 49.7-31 49.7-34.1 74.9-34.1 74.9-31 64.15-31 64.15 0ZM101.99 0L98.29 0 98.29-31 87.54-31 87.54-34.1 112.74-34.1 112.74-31 101.99-31 101.99 0ZM121.24 0L117.49 0 117.49-34.1 121.24-34.1 121.24-19.35 139.24-19.35 139.24-34.1 142.99-34.1 142.99 0 139.24 0 139.24-16.25 121.24-16.25 121.24 0ZM170.19 0L150.94 0 150.94-34.1 170.04-34.1 170.04-30.95 154.69-30.95 154.69-19.05 166.69-19.05 166.69-16 154.69-16 154.69-3.1 170.19-3.1 170.19 0ZM213.83-4.2L226.33-34.1 230.53-34.1 230.53 0 226.83 0 226.83-27.25 215.43 0 211.93 0 201.03-27.15 201.03 0 197.28 0 197.28-34.1 201.88-34.1 213.83-4.2ZM263.18 0L259.68 0 256.18-9.55 242.03-9.55 238.88 0 235.13 0 247.23-34.1 250.73-34.1 263.18 0ZM248.93-29.2L243.18-12.65 255.03-12.65 248.93-29.2ZM267.78 0L267.78-34.1 279.18-34.1Q283.78-34.1 286.53-31.3 289.28-28.5 289.28-23.55L289.28-23.55Q289.28-18.65 286.4-15.85 283.53-13.05 278.78-13.05L278.78-13.05 271.53-13.05 271.53 0 267.78 0ZM271.53-16.15L278.68-16.15Q282.03-16.15 283.78-18.03 285.53-19.9 285.53-23.55L285.53-23.55Q285.53-27.2 283.78-29.1 282.03-31 278.68-31L278.68-31 271.53-31 271.53-16.15ZM317.02 0.8Q312.72 0.8 309.6-1.33 306.47-3.45 304.8-7.43 303.12-11.4 303.12-16.95L303.12-16.95Q303.12-22.55 304.8-26.58 306.47-30.6 309.6-32.73 312.72-34.85 317.02-34.85L317.02-34.85Q320.97-34.85 323.85-33.08 326.72-31.3 328.77-27.85L328.77-27.85 325.82-25.75Q322.67-31.45 317.02-31.45L317.02-31.45Q312.32-31.45 309.69-27.63 307.07-23.8 307.07-17L307.07-17Q307.07-10.25 309.72-6.43 312.37-2.6 317.02-2.6L317.02-2.6Q319.62-2.6 321.69-3.85 323.77-5.1 324.97-7.55 326.17-10 326.17-13.55L326.17-13.55 318.12-13.55 318.12-16.65 329.87-16.65 329.87-13.55Q329.87-8.9 328.22-5.68 326.57-2.45 323.65-0.83 320.72 0.8 317.02 0.8L317.02 0.8ZM348.57 0.8Q342.27 0.8 339.12-2.63 335.97-6.05 335.97-12.65L335.97-12.65 335.97-34.1 339.72-34.1 339.72-12.65Q339.72-2.6 348.57-2.6L348.57-2.6Q352.57-2.6 354.89-5.2 357.22-7.8 357.22-12.65L357.22-12.65 357.22-34.1 360.97-34.1 360.97-12.65Q360.97-6.15 357.69-2.68 354.42 0.8 348.57 0.8L348.57 0.8ZM378.07 0L367.72 0 367.72-3.3 371.02-3.3 371.02-30.8 367.72-30.8 367.72-34.1 378.07-34.1 378.07-30.8 374.77-30.8 374.77-3.3 378.07-3.3 378.07 0ZM384.81 0L384.81-34.1 393.26-34.1Q398.51-34.1 402.31-32.08 406.11-30.05 408.11-26.2 410.11-22.35 410.11-17L410.11-17Q410.11-9 405.66-4.5 401.21 0 393.26 0L393.26 0 384.81 0ZM388.56-3.4L393.16-3.4Q399.26-3.4 402.71-6.75 406.16-10.1 406.16-17L406.16-17Q406.16-23.95 402.71-27.3 399.26-30.65 393.16-30.65L393.16-30.65 388.56-30.65 388.56-3.4ZM436.06 0L416.81 0 416.81-34.1 435.91-34.1 435.91-30.95 420.56-30.95 420.56-19.05 432.56-19.05 432.56-16 420.56-16 420.56-3.1 436.06-3.1 436.06 0ZM461.46-17.1L470.66-34.1 474.11-34.1 463.06-13.95 463.06 0 459.36 0 459.36-14.1 448.41-34.1 452.16-34.1 461.46-17.1ZM490.75 0.8Q486.5 0.8 483.18-1.48 479.85-3.75 477.98-7.8 476.1-11.85 476.1-17L476.1-17Q476.1-22.15 477.98-26.23 479.85-30.3 483.18-32.58 486.5-34.85 490.75-34.85L490.75-34.85Q495-34.85 498.33-32.58 501.65-30.3 503.53-26.23 505.4-22.15 505.4-16.95L505.4-16.95Q505.4-11.8 503.53-7.78 501.65-3.75 498.33-1.48 495 0.8 490.75 0.8L490.75 0.8ZM490.75-2.65Q493.85-2.65 496.33-4.48 498.8-6.3 500.2-9.58 501.6-12.85 501.6-17L501.6-17Q501.6-21.15 500.2-24.45 498.8-27.75 496.33-29.6 493.85-31.45 490.75-31.45L490.75-31.45Q487.65-31.45 485.18-29.6 482.7-27.75 481.3-24.45 479.9-21.15 479.9-17L479.9-17Q479.9-12.85 481.3-9.58 482.7-6.3 485.18-4.48 487.65-2.65 490.75-2.65L490.75-2.65ZM524.75 0.8Q518.45 0.8 515.3-2.63 512.15-6.05 512.15-12.65L512.15-12.65 512.15-34.1 515.9-34.1 515.9-12.65Q515.9-2.6 524.75-2.6L524.75-2.6Q528.75-2.6 531.08-5.2 533.4-7.8 533.4-12.65L533.4-12.65 533.4-34.1 537.15-34.1 537.15-12.65Q537.15-6.15 533.88-2.68 530.6 0.8 524.75 0.8L524.75 0.8Z" opacity="1" transform="matrix(1,0,0,1,0,0)" fill="#000000" class="undefined-text-1" data-fill-palette-color="secondary" id="text-1"></path></svg></g></svg></g></svg></g></svg></g><g transform="matrix(1,0,0,1,128.87171596722746,0)"><svg viewBox="0 0 137.77656806554506 137.77656806554506" height="137.77656806554506" width="137.77656806554506"><g><svg></svg></g><g id="icon-0"><svg viewBox="0 0 137.77656806554506 137.77656806554506" height="137.77656806554506" width="137.77656806554506"><g><path d="M0 68.888c0-38.046 30.842-68.888 68.888-68.888 38.046 0 68.888 30.842 68.889 68.888 0 38.046-30.842 68.888-68.889 68.889-38.046 0-68.888-30.842-68.888-68.889zM68.888 134.778c36.39 0 65.89-29.5 65.89-65.89 0-36.39-29.5-65.89-65.89-65.889-36.39 0-65.89 29.5-65.889 65.889 0 36.39 29.5 65.89 65.889 65.89z" data-fill-palette-color="accent" fill="#000000" stroke="transparent"></path><ellipse rx="68.19940119244481" ry="68.19940119244481" cx="68.88828403277253" cy="68.88828403277253" fill="#000000" stroke="transparent" stroke-width="0" fill-opacity="1" data-fill-palette-color="accent"></ellipse></g><g transform="matrix(1,0,0,1,40.091833531206426,30.93924541876565)"><svg viewBox="0 0 57.59290100313221 75.89807722801376" height="75.89807722801376" width="57.59290100313221"><g><svg xmlns="http://www.w3.org/2000/svg" data-name="Layer 1" viewBox="20.399999618530273 11 59.19999694824219 78.0159683227539" x="0" y="0" height="75.89807722801376" width="57.59290100313221" class="icon-x-0" data-fill-palette-color="quaternary" id="x-0"><path d="M50 17A23.6 23.6 0 0 0 26.4 40.5C26.4 54 43.8 74.7 50 81.6 56.2 74.7 73.6 54 73.6 40.5A23.6 23.6 0 0 0 50 17Zm0 43.3A19.8 19.8 0 1 1 69.8 40.5 19.8 19.8 0 0 1 50 60.3Z" fill="none"></path><path d="M50 26.7A13.8 13.8 0 1 0 63.8 40.5 13.8 13.8 0 0 0 50 26.7Z" fill="none"></path><path d="M50 20.7A19.8 19.8 0 1 0 69.8 40.5 19.8 19.8 0 0 0 50 20.7Zm0 33.6A13.8 13.8 0 1 1 63.8 40.5 13.8 13.8 0 0 1 50 54.3Z" fill="#ffffff" data-fill-palette-color="quaternary"></path><path d="M50 11A29.6 29.6 0 0 0 20.4 40.5c0 18.8 26.3 46.5 27.4 47.6a3.1 3.1 0 0 0 4.4 0C53.3 87 79.6 59.3 79.6 40.5A29.6 29.6 0 0 0 50 11Zm0 70.6C43.8 74.7 26.4 54 26.4 40.5a23.6 23.6 0 0 1 47.2 0C73.6 54 56.2 74.7 50 81.6Z" fill="#ffffff" data-fill-palette-color="quaternary"></path></svg></g></svg></g></svg></g></svg></g><g></g></svg></g></svg><rect width="395.52" height="210.91928334950904" fill="none" stroke="none" visibility="hidden"></rect></g></svg></g></svg>